<?xml version="1.0" encoding="utf-8"?>
<!-- Generator: Adobe Illustrator 19.2.0, SVG Export Plug-In . SVG Version: 6.00 Build 0)  -->
<svg xmlns="http://www.w3.org/2000/svg" xmlns:xlink="http://www.w3.org/1999/xlink" version="1.1" id="nuclearexplosion" x="0px" y="0px" viewBox="0 0 220 228" enable-background="new 0 0 220 228" xml:space="preserve" width="512" height="512">
<g>
	<path fill="#D0E8FF" d="M172.0703,70.4688c-1.2266-0.1133-2.3359-0.7891-2.9961-1.8281   c-3.957-6.207-12.8516-10.2578-22.6602-10.3242c-1.4023-0.0078-2.6953-0.75-3.4102-1.957C137.0977,46.4219,123.3594,40,108.0078,40   c-17.043,0-32.0664,8.0156-36.5352,19.4922c-0.6914,1.7773-2.5664,2.7969-4.418,2.4922c-3.0039-0.5312-6.1094-0.7969-9.2344-0.7969   C36.9648,61.1875,20,72.9688,20,87.4531c0,13.0078,13.9922,24.1914,32.5508,26.0078c2.0117,0.1953,3.5586,1.8633,3.6094,3.8828   c0.1875,7.7695,9.7461,14.0898,21.3086,14.0898c2.9844,0,5.8789-0.418,8.6055-1.2383c1.0977-0.3398,2.2773-0.1758,3.25,0.4219   c0.9766,0.5977,1.6445,1.5859,1.8438,2.7109l11.8281,66.8672h7.2578l13.0156-70.6133c0.2422-1.3047,1.1133-2.4023,2.3242-2.9375   c1.2148-0.5234,2.6133-0.4297,3.7383,0.2773c4.6289,2.9102,10.6094,4.5117,16.8359,4.5117   c11.9414,0,22.5039-6.0547,24.5625-14.0859c0.4023-1.5703,1.7188-2.7422,3.3242-2.9648   c15.0469-2.0898,25.9648-11.2773,25.9648-21.8398C200.0195,81.457,188.0039,71.9688,172.0703,70.4688z M180,104   c0,2.2109-1.7891,4-4,4h-8c-2.2109,0-4-1.7891-4-4v-8c0-2.2109,1.7891-4,4-4h8c2.2109,0,4,1.7891,4,4V104z"/>
	<path fill="#FFFFFF" d="M39.9922,208.0703C41.1797,212.1406,65.5781,220,108,220s66.8203-7.8594,68.0078-12.0703   c-0.9548-3.2563-19.1602-10.4165-56.8838-11.7307l-1.6084,8.7229c-0.3516,1.8945-2.0039,3.2734-3.9336,3.2734H99.6406   c-1.9414,0-3.6016-1.3945-3.9375-3.3047l-1.519-8.5879C58.2437,197.8755,40.9014,204.8374,39.9922,208.0703z"/>
	<path fill="#1C71DA" d="M174.6836,62.7148c-5.4297-7.1406-15.0898-11.7188-26.0195-12.3281   C140.8438,39.1484,125.1836,32,108.0078,32c-18.8594,0-35.8359,8.7578-42.6406,21.6445c-2.4844-0.3047-5.0117-0.457-7.5469-0.457   C32.5547,53.1875,12,68.5586,12,87.4531c0,16.3359,15.5195,30.3633,36.5938,33.5742c2.3906,10.5625,14.3008,18.4062,28.875,18.4062   c2.2266,0,4.418-0.1875,6.5586-0.5547l8.751,49.4756c0.5754-0.0276,1.123-0.0522,1.624-0.0732   c2.1758-0.1758,4.0703,1.6211,4.1641,3.8281s-1.6211,4.0703-3.8281,4.1641c-0.1909,0.0081-0.3643,0.021-0.5542,0.0293l1.519,8.5879   c0.3359,1.9102,1.9961,3.3047,3.9375,3.3047h13.9414c1.9297,0,3.582-1.3789,3.9336-3.2734l1.6084-8.7229   c-0.2441-0.0085-0.468-0.0229-0.7139-0.031c-2.2109-0.0703-3.9414-1.9179-3.8672-4.125c0.0703-2.1641,1.8438-3.8711,3.9922-3.8711   c0.0469,0,0.0898,0,0.1328,0.0039c0.5317,0.0173,1.1951,0.042,1.9221,0.0715l9.574-51.927   c4.8555,2.0273,10.3711,3.1133,16.0039,3.1133c14.5547,0,27.2734-7.2305,31.4648-17.5312   c17.7539-3.3438,30.3867-15.4023,30.3867-29.3594C208.0195,77.7812,193.8164,65.2031,174.6836,62.7148z M174.0547,114.3828   c-1.6055,0.2227-2.9219,1.3945-3.3242,2.9648c-2.0586,8.0312-12.6211,14.0859-24.5625,14.0859   c-6.2266,0-12.207-1.6016-16.8359-4.5117c-1.125-0.707-2.5234-0.8008-3.7383-0.2773c-1.2109,0.5352-2.082,1.6328-2.3242,2.9375   l-13.0156,70.6133h-7.2578L91.168,133.3281c-0.1992-1.125-0.8672-2.1133-1.8438-2.7109c-0.9727-0.5977-2.1523-0.7617-3.25-0.4219   c-2.7266,0.8203-5.6211,1.2383-8.6055,1.2383c-11.5625,0-21.1211-6.3203-21.3086-14.0898   c-0.0508-2.0195-1.5977-3.6875-3.6094-3.8828C33.9922,111.6445,20,100.4609,20,87.4531c0-14.4844,16.9648-26.2656,37.8203-26.2656   c3.125,0,6.2305,0.2656,9.2344,0.7969c1.8516,0.3047,3.7266-0.7148,4.418-2.4922C75.9414,48.0156,90.9648,40,108.0078,40   c15.3516,0,29.0898,6.4219,34.9961,16.3594c0.7148,1.207,2.0078,1.9492,3.4102,1.957c9.8086,0.0664,18.7031,4.1172,22.6602,10.3242   c0.6602,1.0391,1.7695,1.7148,2.9961,1.8281c15.9336,1.5,27.9492,10.9883,27.9492,22.0742   C200.0195,103.1055,189.1016,112.293,174.0547,114.3828z"/>
	<path fill="#1C71DA" d="M118.5352,188.1719c-2.1484,0-3.9219,1.707-3.9922,3.8711c-0.0742,2.2071,1.6562,4.0547,3.8672,4.125   c0.2458,0.0081,0.4697,0.0225,0.7139,0.031c37.7236,1.3142,55.929,8.4744,56.8838,11.7307C174.8203,212.1406,150.4219,220,108,220   s-66.8203-7.8594-68.0078-11.9297c0.9092-3.2329,18.2515-10.1948,54.1919-11.7676c0.1899-0.0083,0.3633-0.0212,0.5542-0.0293   c2.207-0.0938,3.9219-1.957,3.8281-4.1641s-1.9883-4.0039-4.1641-3.8281c-0.501,0.021-1.0486,0.0457-1.624,0.0732   C76.5435,189.1316,32,192.676,32,208c0,15.7891,47.7734,20,76,20s76-4.2109,76-20c0-16.0227-49.218-19.1772-63.4099-19.7527   c-0.7271-0.0295-1.3904-0.0542-1.9221-0.0715C118.625,188.1719,118.582,188.1719,118.5352,188.1719z"/>
	<path fill="#1C71DA" d="M168,28h8c2.2109,0,4-1.7891,4-4v-8c0-2.2109-1.7891-4-4-4h-8c-2.2109,0-4,1.7891-4,4v8   C164,26.2109,165.7891,28,168,28z"/>
	<path fill="#1C71DA" d="M16,60v-8c0-2.2109-1.7891-4-4-4H4c-2.2109,0-4,1.7891-4,4v8c0,2.2109,1.7891,4,4,4h8   C14.2109,64,16,62.2109,16,60z"/>
	<path fill="#1C71DA" d="M124,16h8c2.2109,0,4-1.7891,4-4V4c0-2.2109-1.7891-4-4-4h-8c-2.2109,0-4,1.7891-4,4v8   C120,14.2109,121.7891,16,124,16z"/>
	<path fill="#1C71DA" d="M44,44h8c2.2109,0,4-1.7891,4-4v-8c0-2.2109-1.7891-4-4-4h-8c-2.2109,0-4,1.7891-4,4v8   C40,42.2109,41.7891,44,44,44z"/>
	<path fill="#1C71DA" d="M216,64h-8c-2.2109,0-4,1.7891-4,4v8c0,2.2109,1.7891,4,4,4h8c2.2109,0,4-1.7891,4-4v-8   C220,65.7891,218.2109,64,216,64z"/>
	<path fill="#1C71DA" d="M176,92h-8c-2.2109,0-4,1.7891-4,4v8c0,2.2109,1.7891,4,4,4h8c2.2109,0,4-1.7891,4-4v-8   C180,93.7891,178.2109,92,176,92z"/>
	<path fill="#1C71DA" d="M200,192h-8c-2.2109,0-4,1.7891-4,4v8c0,2.2109,1.7891,4,4,4h8c2.2109,0,4-1.7891,4-4v-8   C204,193.7891,202.2109,192,200,192z"/>
</g>
<path fill="#FF5D5D" d="M44.3854,86.8317c-1.0234,0-2.0479-0.3906-2.8281-1.1719c-1.5625-1.5615-1.5625-4.0947,0-5.6562  l14.1426-14.1416c1.5625-1.5625,4.0957-1.5625,5.6562,0c1.5625,1.5615,1.5625,4.0947,0,5.6562L47.2135,85.6598  C46.4323,86.441,45.4088,86.8317,44.3854,86.8317z"/>
<path fill="#FF5D5D" d="M58.528,86.8326c-1.0234,0-2.0479-0.3906-2.8281-1.1719L41.5573,71.5182  c-1.5625-1.5615-1.5625-4.0947,0-5.6562c1.5605-1.5625,4.0957-1.5625,5.6562,0l14.1426,14.1426  c1.5625,1.5615,1.5625,4.0947,0,5.6562C60.5758,86.442,59.5514,86.8326,58.528,86.8326z"/>
<path fill="#00D40B" d="M22.3854,166.8317c-7.7197,0-14-6.2803-14-14s6.2803-14,14-14s14,6.2803,14,14  S30.1051,166.8317,22.3854,166.8317z M22.3854,146.8317c-3.3086,0-6,2.6914-6,6s2.6914,6,6,6s6-2.6914,6-6  S25.694,146.8317,22.3854,146.8317z"/>
<path fill="#FFC504" d="M175.6989,157.4596c-1.0605,0-2.0781-0.4219-2.8281-1.1719l-11.3135-11.3145  c-1.5625-1.5615-1.5625-4.0947,0-5.6562l11.3135-11.3135c1.5605-1.5625,4.0957-1.5625,5.6562,0l11.3135,11.3135  c1.5625,1.5615,1.5625,4.0947,0,5.6562l-11.3135,11.3145C177.777,157.0377,176.7594,157.4596,175.6989,157.4596z M170.0416,142.1451  l5.6572,5.6572l5.6572-5.6572l-5.6572-5.6562L170.0416,142.1451z"/>
</svg>
